<?xml version="1.0" encoding="UTF-8"?>
<!DOCTYPE svg PUBLIC "-//W3C//DTD SVG 1.1//EN" "http://www.w3.org/Graphics/SVG/1.1/DTD/svg11.dtd">
<svg xmlns="http://www.w3.org/2000/svg" version="1.1" width="572px" height="252px" style="shape-rendering:geometricPrecision; text-rendering:geometricPrecision; image-rendering:optimizeQuality; fill-rule:evenodd; clip-rule:evenodd" xmlns:xlink="http://www.w3.org/1999/xlink">
<g><path style="opacity:1" fill="#fefefd" d="M -0.5,-0.5 C 190.167,-0.5 380.833,-0.5 571.5,-0.5C 571.5,83.5 571.5,167.5 571.5,251.5C 380.833,251.5 190.167,251.5 -0.5,251.5C -0.5,167.5 -0.5,83.5 -0.5,-0.5 Z"/></g>
<g><path style="opacity:1" fill="#fed34f" d="M 223.5,89.5 C 224.589,94.7669 226.256,99.7669 228.5,104.5C 229.407,111.635 230.074,118.801 230.5,126C 230.254,131.511 229.921,137.011 229.5,142.5C 222.694,179.892 201.694,206.059 166.5,221C 119.833,235.673 80.9995,224.173 50,186.5C 42.7904,175.985 37.457,164.651 34,152.5C 32.6241,147.245 31.7908,141.912 31.5,136.5C 31.237,125.754 31.9037,115.087 33.5,104.5C 35.7444,99.7669 37.4111,94.7669 38.5,89.5C 40.3849,84.0626 43.0515,79.0626 46.5,74.5C 48.3084,74.5086 49.9751,74.0086 51.5,73C 63.9472,66.1998 76.1138,59.0331 88,51.5C 90.0483,53.787 92.2149,53.9536 94.5,52C 96.6575,50.0188 98.3241,47.6855 99.5,45C 102.911,42.6708 106.411,40.5041 110,38.5C 110.748,36.0913 111.915,33.9246 113.5,32C 113.257,31.0979 112.923,30.2646 112.5,29.5C 156.826,23.0759 191.659,38.4093 217,75.5C 219.476,80.1137 221.643,84.7804 223.5,89.5 Z"/></g>
<g><path style="opacity:1" fill="#fad154" d="M 112.5,29.5 C 112.923,30.2646 113.257,31.0979 113.5,32C 111.915,33.9246 110.748,36.0913 110,38.5C 106.411,40.5041 102.911,42.6708 99.5,45C 98.3241,47.6855 96.6575,50.0188 94.5,52C 92.2149,53.9536 90.0483,53.787 88,51.5C 76.1138,59.0331 63.9472,66.1998 51.5,73C 49.9751,74.0086 48.3084,74.5086 46.5,74.5C 61.9735,50.0419 83.9735,35.0419 112.5,29.5 Z"/></g>
<g><path style="opacity:1" fill="#fefdfa" d="M 108.5,111.5 C 106.615,109.689 104.281,108.522 101.5,108C 100.748,107.329 100.414,106.496 100.5,105.5C 101.576,98.9497 103.243,92.6164 105.5,86.5C 109.464,78.2746 111.798,78.6079 112.5,87.5C 117.4,86.9481 120.734,88.9481 122.5,93.5C 125.447,94.3214 128.447,94.8214 131.5,95C 134.05,99.0765 133.383,102.743 129.5,106C 123.772,107.201 118.605,109.368 114,112.5C 112.122,112.304 110.288,111.971 108.5,111.5 Z"/></g>
<g><path style="opacity:1" fill="#fbd154" d="M 154.5,127.5 C 149.833,129.5 145.167,131.5 140.5,133.5C 140.611,132.883 140.944,132.383 141.5,132C 140.244,131.583 139.577,130.75 139.5,129.5C 153.098,128.365 157.432,121.365 152.5,108.5C 155.097,107.351 157.597,107.684 160,109.5C 163.399,106.35 166.566,103.017 169.5,99.5C 170.5,100.167 171.5,100.833 172.5,101.5C 181.57,95.7761 190.903,90.4428 200.5,85.5C 202.747,86.3742 205.08,86.7076 207.5,86.5C 207.799,88.604 207.466,90.604 206.5,92.5C 205.029,93.3805 204.196,94.7139 204,96.5C 200.386,98.4824 196.886,100.649 193.5,103C 191.856,108.842 188.189,111.009 182.5,109.5C 180.333,110.948 178,112.115 175.5,113C 168.292,118.105 160.625,122.439 152.5,126C 153.416,126.278 154.082,126.778 154.5,127.5 Z"/></g>
<g><path style="opacity:1" fill="#fad052" d="M 105.5,86.5 C 103.243,92.6164 101.576,98.9497 100.5,105.5C 100.167,105.5 99.8333,105.5 99.5,105.5C 99.6309,104.624 99.2975,103.957 98.5,103.5C 97.0758,109.292 93.5758,111.292 88,109.5C 86.3523,110.717 84.519,111.55 82.5,112C 71.6722,118.844 60.6722,125.511 49.5,132C 45.835,132.387 43.0016,130.887 41,127.5C 38.9801,124.431 39.4801,121.598 42.5,119C 44.1124,118.28 45.6124,118.446 47,119.5C 49.2513,117.623 51.7513,116.123 54.5,115C 55.6068,111.392 57.9402,108.892 61.5,107.5C 62.8689,109.124 64.5355,109.624 66.5,109C 69.2141,106.819 71.2141,104.153 72.5,101C 74.5784,98.8657 76.4117,99.0323 78,101.5C 87.0811,96.2307 96.2478,91.2307 105.5,86.5 Z"/></g>
<g><path style="opacity:1" fill="#ffe599" d="M 38.5,89.5 C 37.4111,94.7669 35.7444,99.7669 33.5,104.5C 34.1938,99.085 35.8605,94.085 38.5,89.5 Z"/></g>
<g><path style="opacity:1" fill="#ffe599" d="M 223.5,89.5 C 226.14,94.085 227.806,99.085 228.5,104.5C 226.256,99.7669 224.589,94.7669 223.5,89.5 Z"/></g>
<g><path style="opacity:1" fill="#fcfaf5" d="M 152.5,108.5 C 157.432,121.365 153.098,128.365 139.5,129.5C 138.525,126.752 136.692,124.752 134,123.5C 132.504,121.55 132.337,119.55 133.5,117.5C 135.412,115.343 137.079,113.009 138.5,110.5C 140.535,109.959 142.535,109.292 144.5,108.5C 147.535,100.652 150.201,100.652 152.5,108.5 Z"/></g>
<g><path style="opacity:1" fill="#ffedb8" d="M 99.5,105.5 C 99.8333,105.5 100.167,105.5 100.5,105.5C 100.414,106.496 100.748,107.329 101.5,108C 104.281,108.522 106.615,109.689 108.5,111.5C 105.821,110.774 103.154,109.941 100.5,109C 99.6634,107.989 99.33,106.822 99.5,105.5 Z"/></g>
<g><path style="opacity:1" fill="#ffe083" d="M 511.5,132.5 C 510.508,125.018 510.175,117.352 510.5,109.5C 509.5,109.5 508.5,109.5 507.5,109.5C 507.5,122.167 507.5,134.833 507.5,147.5C 506.505,134.677 506.171,121.677 506.5,108.5C 508.167,108.5 509.833,108.5 511.5,108.5C 511.5,116.5 511.5,124.5 511.5,132.5 Z"/></g>
<g><path style="opacity:1" fill="#ffe392" d="M 98.5,112.5 C 98.9169,111.876 99.5836,111.543 100.5,111.5C 104.413,112.468 108.08,113.801 111.5,115.5C 107.12,114.707 102.786,113.707 98.5,112.5 Z"/></g>
<g><path style="opacity:1" fill="#fefdfb" d="M 98.5,112.5 C 102.786,113.707 107.12,114.707 111.5,115.5C 113.701,116.566 116.035,117.233 118.5,117.5C 120.274,133.13 121.607,148.797 122.5,164.5C 117.637,164.181 112.97,164.514 108.5,165.5C 104.002,166.111 99.5022,166.777 95,167.5C 89.8287,166.791 84.662,166.124 79.5,165.5C 75.0031,159.506 73.6698,152.839 75.5,145.5C 77.879,150.588 80.5456,155.588 83.5,160.5C 83.56,161.043 83.8933,161.376 84.5,161.5C 85.48,158.914 85.8134,156.247 85.5,153.5C 88.4506,139.318 92.7839,125.652 98.5,112.5 Z"/></g>
<g><path style="opacity:1" fill="#fed55a" d="M 344.5,108.5 C 349.511,108.334 354.511,108.501 359.5,109C 366.589,111.344 369.089,116.177 367,123.5C 365.132,127.521 361.965,129.687 357.5,130C 352.845,130.499 348.179,130.666 343.5,130.5C 343.5,136.167 343.5,141.833 343.5,147.5C 342.167,147.5 340.833,147.5 339.5,147.5C 339.5,134.833 339.5,122.167 339.5,109.5C 341.415,109.784 343.081,109.451 344.5,108.5 Z"/></g>
<g><path style="opacity:1" fill="#fcfbf8" d="M 343.5,111.5 C 348.628,111.112 353.628,111.612 358.5,113C 361.394,115.909 362.227,119.409 361,123.5C 359.786,125.049 358.286,126.215 356.5,127C 352.5,127.667 348.5,127.667 344.5,127C 343.529,121.928 343.195,116.762 343.5,111.5 Z"/></g>
<g><path style="opacity:1" fill="#ffd864" d="M 403.5,114.5 C 404.5,114.5 405.5,114.5 406.5,114.5C 406.5,117.167 406.5,119.833 406.5,122.5C 408.167,122.5 409.833,122.5 411.5,122.5C 411.5,123.5 411.5,124.5 411.5,125.5C 409.833,125.5 408.167,125.5 406.5,125.5C 406.334,131.842 406.5,138.175 407,144.5C 408.533,144.944 410.033,145.277 411.5,145.5C 408.364,149.386 405.364,149.386 402.5,145.5C 401.503,138.866 401.17,132.2 401.5,125.5C 399.833,125.5 398.167,125.5 396.5,125.5C 396.5,124.5 396.5,123.5 396.5,122.5C 401.09,122.068 403.423,119.402 403.5,114.5 Z"/></g>
<g><path style="opacity:1" fill="#fee7a3" d="M 443.5,112.5 C 445.026,113.492 445.693,114.992 445.5,117C 445.486,118.385 445.152,119.551 444.5,120.5C 444.599,117.763 444.265,115.096 443.5,112.5 Z"/></g>
<g><path style="opacity:1" fill="#fed65e" d="M 259.5,118.5 C 258.027,121.017 257.36,123.85 257.5,127C 257.506,129.033 257.839,130.866 258.5,132.5C 258.668,139.854 262.335,144.188 269.5,145.5C 272.912,145.19 276.079,144.19 279,142.5C 279.499,138.848 279.665,135.182 279.5,131.5C 281.167,131.5 282.833,131.5 284.5,131.5C 284.5,136.833 284.5,142.167 284.5,147.5C 282.116,147.557 279.782,147.223 277.5,146.5C 265.531,150.676 257.198,147.01 252.5,135.5C 252.375,129.797 252.708,124.13 253.5,118.5C 258.849,108.675 266.849,105.841 277.5,110C 280.076,110.782 282.076,112.282 283.5,114.5C 283.167,114.833 282.833,115.167 282.5,115.5C 277.389,111.851 271.722,110.685 265.5,112C 262.591,113.406 260.591,115.572 259.5,118.5 Z"/></g>
<g><path style="opacity:1" fill="#fdd45a" d="M 424.5,108.5 C 428.514,108.334 432.514,108.501 436.5,109C 439.404,109.133 441.738,110.3 443.5,112.5C 444.265,115.096 444.599,117.763 444.5,120.5C 443.604,123.069 441.938,125.069 439.5,126.5C 447.586,129.694 449.753,135.36 446,143.5C 443.228,145.761 440.062,147.261 436.5,148C 430.833,148.242 425.167,148.075 419.5,147.5C 419.5,134.833 419.5,122.167 419.5,109.5C 421.415,109.784 423.081,109.451 424.5,108.5 Z"/></g>
<g><path style="opacity:1" fill="#f9f8f7" d="M 424.5,111.5 C 428.182,111.335 431.848,111.501 435.5,112C 439.292,114.053 440.458,117.219 439,121.5C 436.859,124.321 434.025,125.654 430.5,125.5C 428.5,125.5 426.5,125.5 424.5,125.5C 424.5,120.833 424.5,116.167 424.5,111.5 Z"/></g>
<g><path style="opacity:1" fill="#fcf0cc" d="M 424.5,111.5 C 424.5,116.167 424.5,120.833 424.5,125.5C 426.5,125.5 428.5,125.5 430.5,125.5C 428.393,126.468 426.059,126.802 423.5,126.5C 423.179,121.305 423.513,116.305 424.5,111.5 Z"/></g>
<g><path style="opacity:1" fill="#ffeaab" d="M 33.5,104.5 C 31.9037,115.087 31.237,125.754 31.5,136.5C 30.3448,129.345 30.1782,122.012 31,114.5C 31.3106,110.91 32.144,107.577 33.5,104.5 Z"/></g>
<g><path style="opacity:1" fill="#ffd760" d="M 312.5,135.5 C 307.167,135.5 301.833,135.5 296.5,135.5C 296.216,137.415 296.549,139.081 297.5,140.5C 297.513,143.695 299.18,145.362 302.5,145.5C 305.13,144.622 307.797,143.955 310.5,143.5C 310.5,144.5 310.5,145.5 310.5,146.5C 295.162,150.333 288.996,144.333 292,128.5C 295.277,122.891 300.11,121.058 306.5,123C 312.244,125.645 314.244,129.811 312.5,135.5 Z"/></g>
<g><path style="opacity:1" fill="#ffd760" d="M 392.5,135.5 C 387.167,135.5 381.833,135.5 376.5,135.5C 376.216,137.415 376.549,139.081 377.5,140.5C 377.513,143.695 379.18,145.362 382.5,145.5C 385.13,144.622 387.797,143.955 390.5,143.5C 390.5,144.5 390.5,145.5 390.5,146.5C 375.162,150.333 368.996,144.333 372,128.5C 375.277,122.891 380.11,121.058 386.5,123C 392.244,125.645 394.244,129.811 392.5,135.5 Z"/></g>
<g><path style="opacity:1" fill="#ffd65e" d="M 460.5,122.5 C 465.849,121.461 470.349,122.795 474,126.5C 474.5,133.492 474.666,140.492 474.5,147.5C 472.409,147.682 470.409,147.348 468.5,146.5C 463.753,149.383 459.253,149.05 455,145.5C 451.92,133.748 456.42,129.415 468.5,132.5C 469.079,124.384 465.579,122.384 458,126.5C 457.5,126.167 457,125.833 456.5,125.5C 457.901,124.479 459.235,123.479 460.5,122.5 Z"/></g>
<g><path style="opacity:1" fill="#ffd760" d="M 483.5,141.5 C 482.64,137.566 482.307,133.566 482.5,129.5C 485.459,123.027 490.459,120.861 497.5,123C 500.188,123.782 501.188,125.282 500.5,127.5C 491.706,122.231 487.372,124.731 487.5,135C 487.444,145.303 491.777,147.803 500.5,142.5C 501.833,143.5 501.833,144.5 500.5,145.5C 493.318,150.265 487.651,148.932 483.5,141.5 Z"/></g>
<g><path style="opacity:1" fill="#feecb5" d="M 253.5,118.5 C 252.708,124.13 252.375,129.797 252.5,135.5C 251.837,133.359 251.503,131.025 251.5,128.5C 251.315,124.859 251.981,121.526 253.5,118.5 Z"/></g>
<g><path style="opacity:1" fill="#ffedb8" d="M 259.5,118.5 C 258.771,123.13 258.437,127.797 258.5,132.5C 257.839,130.866 257.506,129.033 257.5,127C 257.36,123.85 258.027,121.017 259.5,118.5 Z"/></g>
<g><path style="opacity:1" fill="#fffdf8" d="M 305.5,126.5 C 306.15,128.435 306.483,130.435 306.5,132.5C 303.5,132.5 300.5,132.5 297.5,132.5C 297.5,131.167 297.5,129.833 297.5,128.5C 299.339,124.33 302.005,123.663 305.5,126.5 Z"/></g>
<g><path style="opacity:1" fill="#fed763" d="M 323.5,114.5 C 324.5,114.5 325.5,114.5 326.5,114.5C 326.5,117.167 326.5,119.833 326.5,122.5C 328.167,122.5 329.833,122.5 331.5,122.5C 331.5,123.5 331.5,124.5 331.5,125.5C 329.833,125.5 328.167,125.5 326.5,125.5C 326.334,131.842 326.5,138.175 327,144.5C 328.533,144.944 330.033,145.277 331.5,145.5C 328.364,149.386 325.364,149.386 322.5,145.5C 321.503,138.866 321.17,132.2 321.5,125.5C 319.833,125.5 318.167,125.5 316.5,125.5C 316.5,124.5 316.5,123.5 316.5,122.5C 321.09,122.068 323.423,119.402 323.5,114.5 Z"/></g>
<g><path style="opacity:1" fill="#fffdf8" d="M 385.5,126.5 C 386.15,128.435 386.483,130.435 386.5,132.5C 383.5,132.5 380.5,132.5 377.5,132.5C 377.5,131.167 377.5,129.833 377.5,128.5C 379.339,124.33 382.005,123.663 385.5,126.5 Z"/></g>
<g><path style="opacity:1" fill="#fefdf9" d="M 154.5,127.5 C 164.229,134.075 171.729,142.741 177,153.5C 177.49,154.793 177.657,156.127 177.5,157.5C 182.346,156.491 184.18,153.491 183,148.5C 174.837,143.154 174.337,136.987 181.5,130C 183.134,129.506 184.801,129.34 186.5,129.5C 185.074,132.769 183.407,135.935 181.5,139C 182.437,142.365 184.271,145.199 187,147.5C 188.672,153.658 186.838,158.491 181.5,162C 177.445,162.922 173.779,164.589 170.5,167C 160.824,167.482 151.157,167.315 141.5,166.5C 141.765,155.462 141.432,144.462 140.5,133.5C 145.167,131.5 149.833,129.5 154.5,127.5 Z"/></g>
<g><path style="opacity:1" fill="#ffe8a7" d="M 228.5,104.5 C 230.862,111.168 231.862,118.168 231.5,125.5C 231.651,131.409 230.984,137.075 229.5,142.5C 229.921,137.011 230.254,131.511 230.5,126C 230.074,118.801 229.407,111.635 228.5,104.5 Z"/></g>
<g><path style="opacity:1" fill="#fdde83" d="M 344.5,108.5 C 343.081,109.451 341.415,109.784 339.5,109.5C 339.5,122.167 339.5,134.833 339.5,147.5C 338.505,134.677 338.171,121.677 338.5,108.5C 340.5,108.5 342.5,108.5 344.5,108.5 Z"/></g>
<g><path style="opacity:1" fill="#fffefc" d="M 424.5,128.5 C 430.515,127.618 435.848,128.951 440.5,132.5C 441.219,134.764 441.552,137.097 441.5,139.5C 440.969,141.624 439.635,143.124 437.5,144C 434.274,145.199 430.941,145.699 427.5,145.5C 426.791,144.596 425.791,144.263 424.5,144.5C 424.5,139.167 424.5,133.833 424.5,128.5 Z"/></g>
<g><path style="opacity:1" fill="#fedf83" d="M 424.5,108.5 C 423.081,109.451 421.415,109.784 419.5,109.5C 419.5,122.167 419.5,134.833 419.5,147.5C 418.505,134.677 418.171,121.677 418.5,108.5C 420.5,108.5 422.5,108.5 424.5,108.5 Z"/></g>
<g><path style="opacity:1" fill="#fef2cc" d="M 424.5,128.5 C 424.5,133.833 424.5,139.167 424.5,144.5C 425.791,144.263 426.791,144.596 427.5,145.5C 426.167,145.5 424.833,145.5 423.5,145.5C 423.178,139.642 423.511,133.975 424.5,128.5 Z"/></g>
<g><path style="opacity:1" fill="#fff0c5" d="M 305.5,126.5 C 306.117,126.611 306.617,126.944 307,127.5C 307.495,129.473 307.662,131.473 307.5,133.5C 303.833,133.5 300.167,133.5 296.5,133.5C 296.216,131.585 296.549,129.919 297.5,128.5C 297.5,129.833 297.5,131.167 297.5,132.5C 300.5,132.5 303.5,132.5 306.5,132.5C 306.483,130.435 306.15,128.435 305.5,126.5 Z"/></g>
<g><path style="opacity:1" fill="#fff0c5" d="M 385.5,126.5 C 386.117,126.611 386.617,126.944 387,127.5C 387.495,129.473 387.662,131.473 387.5,133.5C 383.833,133.5 380.167,133.5 376.5,133.5C 376.216,131.585 376.549,129.919 377.5,128.5C 377.5,129.833 377.5,131.167 377.5,132.5C 380.5,132.5 383.5,132.5 386.5,132.5C 386.483,130.435 386.15,128.435 385.5,126.5 Z"/></g>
<g><path style="opacity:1" fill="#fed65e" d="M 511.5,132.5 C 515.625,129.547 519.625,126.381 523.5,123C 524.833,122.333 526.167,122.333 527.5,123C 523.5,126.333 519.5,129.667 515.5,133C 520.066,137.476 524.399,142.143 528.5,147C 526.5,147.667 524.5,147.667 522.5,147C 519.369,142.867 515.869,139.034 512,135.5C 511.501,139.486 511.334,143.486 511.5,147.5C 510.167,147.5 508.833,147.5 507.5,147.5C 507.5,134.833 507.5,122.167 507.5,109.5C 508.5,109.5 509.5,109.5 510.5,109.5C 510.175,117.352 510.508,125.018 511.5,132.5 Z"/></g>
<g><path style="opacity:1" fill="#ffe8a6" d="M 482.5,129.5 C 482.307,133.566 482.64,137.566 483.5,141.5C 482.883,141.389 482.383,141.056 482,140.5C 481.19,136.642 481.357,132.976 482.5,129.5 Z"/></g>
<g><path style="opacity:1" fill="#fffbf3" d="M 460.5,134.5 C 468.887,132.488 471.887,135.488 469.5,143.5C 459.382,147.297 456.382,144.297 460.5,134.5 Z"/></g>
<g><path style="opacity:1" fill="#fff2ca" d="M 312.5,135.5 C 307.695,136.487 302.695,136.821 297.5,136.5C 297.5,137.833 297.5,139.167 297.5,140.5C 296.549,139.081 296.216,137.415 296.5,135.5C 301.833,135.5 307.167,135.5 312.5,135.5 Z"/></g>
<g><path style="opacity:1" fill="#fff2ca" d="M 392.5,135.5 C 387.695,136.487 382.695,136.821 377.5,136.5C 377.5,137.833 377.5,139.167 377.5,140.5C 376.549,139.081 376.216,137.415 376.5,135.5C 381.833,135.5 387.167,135.5 392.5,135.5 Z"/></g>
<g><path style="opacity:1" fill="#ffe9a9" d="M 440.5,132.5 C 441.993,133.312 442.66,134.645 442.5,136.5C 442.48,137.726 442.147,138.726 441.5,139.5C 441.552,137.097 441.219,134.764 440.5,132.5 Z"/></g>
<g><path style="opacity:1" fill="#fbe194" d="M 85.5,153.5 C 85.8134,156.247 85.48,158.914 84.5,161.5C 83.8933,161.376 83.56,161.043 83.5,160.5C 84.1667,158.167 84.8333,155.833 85.5,153.5 Z"/></g>
<g><path style="opacity:1" fill="#ffe69c" d="M 79.5,165.5 C 84.662,166.124 89.8287,166.791 95,167.5C 99.5022,166.777 104.002,166.111 108.5,165.5C 108.082,166.222 107.416,166.722 106.5,167C 98.1761,168.854 89.8427,168.854 81.5,167C 80.5842,166.722 79.9175,166.222 79.5,165.5 Z"/></g>
</svg>
